<svg 
      viewBox="0 0 704 720" 
      xmlns="http://www.w3.org/2000/svg"
    >
      <path 
        fill="#3B81F6"
        d="M91.107361,682.980957 C52.792820,660.016541 31.683256,626.191345 25.633656,582.673767 C21.615532,553.769470 28.492750,526.981873 41.334896,501.158539 C78.647636,426.128998 115.593552,350.917145 152.779694,275.824463 C181.020630,218.795486 209.430008,161.849930 237.724625,104.847504 C257.487061,65.034058 288.731781,39.632984 332.358154,30.437542 C392.954437,17.665237 453.953430,48.267132 481.252808,103.899506 C513.100464,168.800781 545.564392,233.399292 577.566162,298.225342 C612.446289,368.882263 647.591187,439.415192 681.681641,510.452789 C703.580566,556.085510 699.525391,600.569275 671.081177,642.610657 C654.548767,667.045898 633.373596,686.065613 604.751099,694.630981 C562.367615,707.314331 521.458191,704.347168 483.714294,679.251831 C469.083252,669.523926 457.561005,656.576416 447.912140,641.997070 C434.753479,622.114563 418.104614,606.433594 394.962616,599.174744 C351.061951,585.404724 301.786285,596.001099 273.850372,638.909302 C252.129639,672.271240 221.741409,692.468750 182.704742,699.824768 C150.143875,705.960510 119.900169,699.403809 91.107361,682.980957 M463.476349,200.846832 C450.030792,237.406708 410.799469,264.684723 370.169495,266.290955 C352.838776,266.976105 336.115265,263.084076 319.166718,260.888367 C297.712433,258.108978 276.347687,255.230591 254.575958,257.112000 C213.653763,260.648254 183.064377,279.335083 164.746628,316.755707 C136.769073,373.910004 108.746414,431.042206 80.778236,488.201111 C80.109108,489.568604 78.662277,490.914948 79.835114,492.727936 C81.456245,492.930420 82.329407,491.792542 83.273003,490.915131 C107.523766,468.365143 137.278946,459.279602 169.322800,456.893860 C195.197739,454.967346 220.831406,457.920288 246.012039,464.353699 C332.591217,486.473907 401.787323,534.813721 456.880249,604.332764 C464.741211,614.252075 471.745483,624.858826 479.749908,634.654114 C500.221039,659.705383 527.423096,671.614624 559.225647,672.442200 C579.241455,672.963074 597.855347,666.724976 615.162048,656.436035 C656.384338,631.929382 675.874146,577.322021 659.096924,532.344116 C652.329651,514.202087 643.086914,497.182129 634.543457,479.871094 C581.168152,371.719818 527.581543,263.672852 474.047302,155.600037 C473.394073,154.281326 473.002441,152.678314 471.079987,151.626511 C471.966858,168.659042 470.007111,184.732208 463.476349,200.846832 z"
      />
    </svg>